<svg width="20" height="20" viewBox="0 0 20 20" fill="none" xmlns="http://www.w3.org/2000/svg">
<path d="M3.71095 14.9609C3.62355 15.048 3.55421 15.1515 3.50689 15.2655C3.45957 15.3794 3.43522 15.5016 3.43522 15.625C3.43522 15.7484 3.45957 15.8705 3.50689 15.9845C3.55421 16.0985 3.62355 16.2019 3.71095 16.289C3.88787 16.4637 4.12644 16.5616 4.37502 16.5616C4.62359 16.5616 4.86217 16.4637 5.03908 16.289L10 11.3281L14.961 16.289C15.1379 16.4637 15.3764 16.5616 15.625 16.5616C15.8736 16.5616 16.1122 16.4637 16.2891 16.289C16.3765 16.2019 16.4458 16.0985 16.4931 15.9845C16.5405 15.8705 16.5648 15.7484 16.5648 15.625C16.5648 15.5016 16.5405 15.3794 16.4931 15.2655C16.4458 15.1515 16.3765 15.048 16.2891 14.9609L11.3281 9.99998L16.2891 5.03904C16.4652 4.86292 16.5641 4.62405 16.5641 4.37498C16.5641 4.25165 16.5399 4.12953 16.4927 4.01559C16.4455 3.90165 16.3763 3.79812 16.2891 3.71092C16.2019 3.62371 16.0983 3.55453 15.9844 3.50734C15.8705 3.46014 15.7483 3.43585 15.625 3.43585C15.3759 3.43585 15.1371 3.5348 14.961 3.71092L10 8.67185L5.03908 3.71092C4.86296 3.5348 4.62409 3.43585 4.37502 3.43585C4.12595 3.43585 3.88708 3.5348 3.71095 3.71092C3.53483 3.88704 3.43589 4.12591 3.43589 4.37498C3.43589 4.62405 3.53483 4.86292 3.71095 5.03904L8.67189 9.99998L3.71095 14.9609Z" fill="black" fill-opacity="0.6"/>
</svg>
